<svg xmlns="http://www.w3.org/2000/svg" xmlns:xlink="http://www.w3.org/1999/xlink" width="41.021mm" height="40.64mm" viewBox="4029 3019 161.5 160"><title></title><style type="text/css">
*[layerid="1"] {stroke:#000000;fill:#000000;}
*[layerid="2"] {stroke:#000000;fill:#000000;}
*[layerid="3"] {stroke:#000000;fill:#000000;}
*[layerid="4"] {stroke:#000000;fill:#000000;}
*[layerid="5"] {stroke:#000000;fill:#000000;}
*[layerid="6"] {stroke:#000000;fill:#000000;}
*[layerid="7"] {stroke:#000000;fill:#000000;}
*[layerid="8"] {stroke:#000000;fill:#000000;}
*[layerid="9"] {stroke:#000000;fill:#000000;}
*[layerid="10"] {stroke:#000000;fill:#000000;}
*[layerid="11"] {stroke:#000000;fill:#000000;}
*[layerid="12"] {stroke:#000000;fill:#000000;}
*[layerid="13"] {stroke:#000000;fill:#000000;}
*[layerid="14"] {stroke:#000000;fill:#000000;}
*[layerid="15"] {stroke:#000000;fill:#000000;}
*[layerid="19"] {stroke:#000000;fill:#000000;}
*[layerid="21"] {stroke:#000000;fill:#000000;}
*[layerid="22"] {stroke:#000000;fill:#000000;}
*[layerid="23"] {stroke:#000000;fill:#000000;}
*[layerid="24"] {stroke:#000000;fill:#000000;}
*[layerid="25"] {stroke:#000000;fill:#000000;}
*[layerid="26"] {stroke:#000000;fill:#000000;}
*[layerid="27"] {stroke:#000000;fill:#000000;}
*[layerid="28"] {stroke:#000000;fill:#000000;}
*[layerid="29"] {stroke:#000000;fill:#000000;}
*[layerid="30"] {stroke:#000000;fill:#000000;}
*[layerid="31"] {stroke:#000000;fill:#000000;}
*[layerid="32"] {stroke:#000000;fill:#000000;}
*[layerid="33"] {stroke:#000000;fill:#000000;}
*[layerid="34"] {stroke:#000000;fill:#000000;}
*[layerid="35"] {stroke:#000000;fill:#000000;}
*[layerid="36"] {stroke:#000000;fill:#000000;}
*[layerid="37"] {stroke:#000000;fill:#000000;}
*[layerid="38"] {stroke:#000000;fill:#000000;}
*[layerid="39"] {stroke:#000000;fill:#000000;}
*[layerid="40"] {stroke:#000000;fill:#000000;}
*[layerid="41"] {stroke:#000000;fill:#000000;}
*[layerid="42"] {stroke:#000000;fill:#000000;}
*[layerid="43"] {stroke:#000000;fill:#000000;}
*[layerid="44"] {stroke:#000000;fill:#000000;}
*[layerid="45"] {stroke:#000000;fill:#000000;}
*[layerid="46"] {stroke:#000000;fill:#000000;}
*[layerid="47"] {stroke:#000000;fill:#000000;}
*[layerid="48"] {stroke:#000000;fill:#000000;}
*[layerid="49"] {stroke:#000000;fill:#000000;}
*[layerid="50"] {stroke:#000000;fill:#000000;}
*[layerid="51"] {stroke:#000000;fill:#000000;}
*[layerid="52"] {stroke:#000000;fill:#000000;}
*[layerid="99"] {stroke:#000000;fill:#000000;}
*[layerid="100"] {stroke:#000000;fill:#000000;}
*[layerid="Hole"] {stroke:#000000;fill:#000000;}
*[layerid="DRCError"] {stroke:#000000;fill:#000000;}
*[fill="none"] {fill: none;}
*[stroke="none"] {stroke: none;}
path, polyline, polygon, line {stroke-linecap:round;}
g[c_partid="part_pad"][layerid="1"] ellipse:not([c_etype="pad_outer"]) {fill:#000000;}
g[c_partid="part_pad"][layerid="1"] polygon:not([c_etype="pad_outer"]) {fill:#000000;}
g[c_partid="part_pad"][layerid="1"] polyline:not([c_etype="pad_outer"]) {stroke:#000000;}
g[c_partid="part_pad"][layerid="2"] ellipse:not([c_etype="pad_outer"]) {fill:#000000;}
g[c_partid="part_pad"][layerid="2"] polygon:not([c_etype="pad_outer"]) {fill:#000000;}
g[c_partid="part_pad"][layerid="2"] polyline:not([c_etype="pad_outer"]) {stroke:#000000;}
g[c_partid="part_pad"][layerid="11"] ellipse:not([c_etype="pad_outer"]) {fill:#000000;}
g[c_partid="part_pad"][layerid="11"] polygon:not([c_etype="pad_outer"]) {fill:#000000;}
g[c_partid="part_pad"][layerid="11"] polyline:not([c_etype="pad_outer"]) {stroke:#000000;}
g[c_partid="part_pad"][layerid="11"] circle {fill:#FFFFFF;}
g[c_partid="part_pad"][layerid="11"] > polyline:nth-of-type(2) {stroke:#FFFFFF;}
g[c_partid="part_pad"][layerid="11"][c_shape="ELLIPSE"]  polyline:nth-last-of-type(1) {stroke:#FFFFFF;}
g[c_partid="part_pad"][layerid="11"][c_shape="RECT"]  polyline:nth-last-of-type(1) {stroke:#FFFFFF;}
g[c_partid="part_pad"][layerid="11"][c_shape="POLYGON"]  polyline:nth-last-of-type(1) {stroke:#FFFFFF;}
g[c_partid="part_via"] > * + circle, #gCurParts g[c_partid="part_via"] > * + circle {fill:#FFFFFF;}
g[c_partid="part_pad"] > polygon[c_etype="pad_outer"], #gCurParts g[c_partid="part_pad"] > polygon[c_etype="pad_outer"] {stroke-linejoin: miter;stroke-miterlimit: 100;}
g[c_partid="part_hole"] > circle {fill: #FFFFFF;}path, polyline, polygon {stroke-linejoin:round;}
rect, circle, ellipse, polyline, line, polygon, path {shape-rendering:crispEdges;}
</style>
<rect x="4029" y="3019" width="161.5" height="160" fill="#FFFFFF" stroke="none"/><g transform="matrix(-1, 0, 0, 1, 8219.5, 0)"><polyline points="4147.2501 3078 4166.75 3098.5" stroke-width="3"  stroke-linecap="round" fill="none" layerid="1" net="S$341" id="gge340" locked="0" /><polyline points="4166.75 3078 4166.5 3057.5" stroke-width="3"  stroke-linecap="round" fill="none" layerid="1" net="S$339" id="gge338" locked="0" /><polyline points="4147.5 3118.5 4147.5 3098.6499 4147.6499 3098.5" stroke-width="3"  stroke-linecap="round" fill="none" layerid="1" net="S$337" id="gge336" locked="0" /><polyline points="4105.2503 3078 4105 3055.5" stroke-width="3"  stroke-linecap="round" fill="none" layerid="1" net="S$378" id="gge377" locked="0" /><polyline points="4061.25 3078 4061.5 3057.5" stroke-width="3"  stroke-linecap="round" fill="none" layerid="1" net="S$374" id="gge382" locked="0" /><polyline points="4105 3109 4112 3109 4122.5 3098.5" stroke-width="3"  stroke-linecap="round" fill="none" layerid="1" net="S$363" id="gge389" locked="0" /><polyline points="4105 3109 4105 3098.5" stroke-width="3"  stroke-linecap="round" fill="none" layerid="1" net="S$363" id="gge391" locked="0" /><polyline points="4105 3119 4105 3109" stroke-width="3"  stroke-linecap="round" fill="none" layerid="1" net="S$363" id="gge390" locked="0" /><polyline points="4080.5001 3078 4080.5 3057" stroke-width="3"  stroke-linecap="round" fill="none" layerid="1" net="S$376" id="gge375" locked="0" /><polyline points="4124.5002 3078 4124.5 3055.5" stroke-width="3"  stroke-linecap="round" fill="none" layerid="1" net="S$380" id="gge379" locked="0" /><polyline points="4061.5002 3119 4061.5 3118.9998 4061.5 3109.5" stroke-width="3"  stroke-linecap="round" fill="none" layerid="1" net="S$350" id="gge349" locked="0" /><polyline points="4061.5 3109.5 4061.5 3098.7498 4061.2502 3098.5" stroke-width="3"  stroke-linecap="round" fill="none" layerid="1" net="S$350" id="gge356" locked="0" /><polyline points="4061.5 3109.5 4070 3109.5 4081 3098.5" stroke-width="3"  stroke-linecap="round" fill="none" layerid="1" net="S$350" id="gge352" locked="0" /><g c_partid="part_pcbtext" c_etype="pinpart" c_origin="4055.5,3131.5" c_rotation="0" c_mirror="0" id="gge262" locked="0" layerid="1" c_shapetype="group" ><path c_fontsize="6" c_fontfamily="" c_text="play" d="M 4055.5 3127.35 L 4055.5 3133.08 M 4055.5 3128.17 L 4056.05 3127.63 L 4056.59 3127.35 L 4057.41 3127.35 L 4057.95 3127.63 L 4058.5 3128.17 L 4058.77 3128.99 L 4058.77 3129.54 L 4058.5 3130.35 L 4057.95 3130.9 L 4057.41 3131.17 L 4056.59 3131.17 L 4056.05 3130.9 L 4055.5 3130.35 M 4060.57 3125.45 L 4060.57 3131.17 M 4065.65 3127.35 L 4065.65 3131.17 M 4065.65 3128.17 L 4065.1 3127.63 L 4064.55 3127.35 L 4063.74 3127.35 L 4063.19 3127.63 L 4062.65 3128.17 L 4062.37 3128.99 L 4062.37 3129.54 L 4062.65 3130.35 L 4063.19 3130.9 L 4063.74 3131.17 L 4064.55 3131.17 L 4065.1 3130.9 L 4065.65 3130.35 M 4067.72 3127.35 L 4069.35 3131.17 M 4070.99 3127.35 L 4069.35 3131.17 L 4068.81 3132.26 L 4068.26 3132.81 L 4067.72 3133.08 L 4067.45 3133.08" fill="none"  stroke-width="0.8"  /></g><g c_partid="part_pcbtext" c_etype="pinpart" c_origin="4043,3049" c_rotation="0" c_mirror="0" id="gge265" locked="0" layerid="1" c_shapetype="group" ><path c_fontsize="8" c_fontfamily="" c_text="GRND" d="M 4048.45 3042.75 L 4048.09 3042.02 L 4047.36 3041.29 L 4046.64 3040.93 L 4045.18 3040.93 L 4044.45 3041.29 L 4043.73 3042.02 L 4043.36 3042.75 L 4043 3043.84 L 4043 3045.65 L 4043.36 3046.75 L 4043.73 3047.47 L 4044.45 3048.2 L 4045.18 3048.56 L 4046.64 3048.56 L 4047.36 3048.2 L 4048.09 3047.47 L 4048.45 3046.75 L 4048.45 3045.65 M 4046.64 3045.65 L 4048.45 3045.65 M 4050.85 3040.93 L 4050.85 3048.56 M 4050.85 3040.93 L 4054.13 3040.93 L 4055.22 3041.29 L 4055.58 3041.65 L 4055.95 3042.38 L 4055.95 3043.11 L 4055.58 3043.84 L 4055.22 3044.2 L 4054.13 3044.56 L 4050.85 3044.56 M 4053.4 3044.56 L 4055.95 3048.56 M 4058.35 3040.93 L 4058.35 3048.56 M 4058.35 3040.93 L 4063.44 3048.56 M 4063.44 3040.93 L 4063.44 3048.56 M 4065.84 3040.93 L 4065.84 3048.56 M 4065.84 3040.93 L 4068.38 3040.93 L 4069.47 3041.29 L 4070.2 3042.02 L 4070.56 3042.75 L 4070.93 3043.84 L 4070.93 3045.65 L 4070.56 3046.75 L 4070.2 3047.47 L 4069.47 3048.2 L 4068.38 3048.56 L 4065.84 3048.56" fill="none"  stroke-width="0.8"  /></g><g c_partid="part_pcbtext" c_etype="pinpart" c_origin="4098,3132.5" c_rotation="0" c_mirror="0" id="gge268" locked="0" layerid="1" c_shapetype="group" ><path c_fontsize="6" c_fontfamily="" c_text="take" d="M 4098.82 3126.45 L 4098.82 3131.08 L 4099.09 3131.9 L 4099.64 3132.17 L 4100.18 3132.17 M 4098 3128.35 L 4099.91 3128.35 M 4105.25 3128.35 L 4105.25 3132.17 M 4105.25 3129.17 L 4104.71 3128.63 L 4104.16 3128.35 L 4103.35 3128.35 L 4102.8 3128.63 L 4102.25 3129.17 L 4101.98 3129.99 L 4101.98 3130.54 L 4102.25 3131.35 L 4102.8 3131.9 L 4103.35 3132.17 L 4104.16 3132.17 L 4104.71 3131.9 L 4105.25 3131.35 M 4107.05 3126.45 L 4107.05 3132.17 M 4109.78 3128.35 L 4107.05 3131.08 M 4108.15 3129.99 L 4110.05 3132.17 M 4111.85 3129.99 L 4115.13 3129.99 L 4115.13 3129.45 L 4114.85 3128.9 L 4114.58 3128.63 L 4114.04 3128.35 L 4113.22 3128.35 L 4112.67 3128.63 L 4112.13 3129.17 L 4111.85 3129.99 L 4111.85 3130.54 L 4112.13 3131.35 L 4112.67 3131.9 L 4113.22 3132.17 L 4114.04 3132.17 L 4114.58 3131.9 L 4115.13 3131.35" fill="none"  stroke-width="0.8"  /></g><g c_partid="part_pcbtext" c_etype="pinpart" c_origin="4146.5,3132.5" c_rotation="0" c_mirror="0" id="gge271" locked="0" layerid="1" c_shapetype="group" ><path c_fontsize="6" c_fontfamily="" c_text="led" d="M 4146.5 3126.45 L 4146.5 3132.17 M 4148.3 3129.99 L 4151.57 3129.99 L 4151.57 3129.45 L 4151.3 3128.9 L 4151.03 3128.63 L 4150.48 3128.35 L 4149.66 3128.35 L 4149.12 3128.63 L 4148.57 3129.17 L 4148.3 3129.99 L 4148.3 3130.54 L 4148.57 3131.35 L 4149.12 3131.9 L 4149.66 3132.17 L 4150.48 3132.17 L 4151.03 3131.9 L 4151.57 3131.35 M 4156.65 3126.45 L 4156.65 3132.17 M 4156.65 3129.17 L 4156.1 3128.63 L 4155.55 3128.35 L 4154.74 3128.35 L 4154.19 3128.63 L 4153.65 3129.17 L 4153.37 3129.99 L 4153.37 3130.54 L 4153.65 3131.35 L 4154.19 3131.9 L 4154.74 3132.17 L 4155.55 3132.17 L 4156.1 3131.9 L 4156.65 3131.35" fill="none"  stroke-width="0.8"  /></g><g c_partid="part_pcbtext" c_etype="pinpart" c_origin="4145,3091" c_rotation="0" c_mirror="0" id="gge392" locked="0" layerid="1" c_shapetype="group" ><path c_fontsize="4" c_fontfamily="" c_text="R1" d="M 4145 3086.96 L 4145 3090.78 M 4145 3086.96 L 4146.64 3086.96 L 4147.18 3087.15 L 4147.36 3087.33 L 4147.55 3087.69 L 4147.55 3088.05 L 4147.36 3088.42 L 4147.18 3088.6 L 4146.64 3088.78 L 4145 3088.78 M 4146.27 3088.78 L 4147.55 3090.78 M 4148.75 3087.69 L 4149.11 3087.51 L 4149.65 3086.96 L 4149.65 3090.78" fill="none"  stroke-width="0.8"  /></g><g c_partid="part_pcbtext" c_etype="pinpart" c_origin="4175.5,3076" c_rotation="90" c_mirror="0" id="gge395" locked="0" layerid="1" c_shapetype="group" ><path c_fontsize="4" c_fontfamily="" c_text="led" d="M 4171.46 3076 L 4175.28 3076 M 4173.83 3074.8 L 4173.83 3072.62 L 4173.46 3072.62 L 4173.1 3072.8 L 4172.92 3072.98 L 4172.74 3073.35 L 4172.74 3073.89 L 4172.92 3074.25 L 4173.28 3074.62 L 4173.83 3074.8 L 4174.19 3074.8 L 4174.74 3074.62 L 4175.1 3074.25 L 4175.28 3073.89 L 4175.28 3073.35 L 4175.1 3072.98 L 4174.74 3072.62 M 4171.46 3069.24 L 4175.28 3069.24 M 4173.28 3069.24 L 4172.92 3069.6 L 4172.74 3069.96 L 4172.74 3070.51 L 4172.92 3070.87 L 4173.28 3071.24 L 4173.83 3071.42 L 4174.19 3071.42 L 4174.74 3071.24 L 4175.1 3070.87 L 4175.28 3070.51 L 4175.28 3069.96 L 4175.1 3069.6 L 4174.74 3069.24" fill="none"  stroke-width="0.8"  /></g><g c_partid="part_pcbtext" c_etype="pinpart" c_origin="4121.5,3089" c_rotation="0" c_mirror="0" id="gge403" locked="0" layerid="1" c_shapetype="group" ><path c_fontsize="4" c_fontfamily="" c_text="cap" d="M 4123.68 3086.78 L 4123.32 3086.42 L 4122.95 3086.24 L 4122.41 3086.24 L 4122.05 3086.42 L 4121.68 3086.78 L 4121.5 3087.33 L 4121.5 3087.69 L 4121.68 3088.24 L 4122.05 3088.6 L 4122.41 3088.78 L 4122.95 3088.78 L 4123.32 3088.6 L 4123.68 3088.24 M 4127.06 3086.24 L 4127.06 3088.78 M 4127.06 3086.78 L 4126.7 3086.42 L 4126.34 3086.24 L 4125.79 3086.24 L 4125.43 3086.42 L 4125.06 3086.78 L 4124.88 3087.33 L 4124.88 3087.69 L 4125.06 3088.24 L 4125.43 3088.6 L 4125.79 3088.78 L 4126.34 3088.78 L 4126.7 3088.6 L 4127.06 3088.24 M 4128.26 3086.24 L 4128.26 3090.05 M 4128.26 3086.78 L 4128.63 3086.42 L 4128.99 3086.24 L 4129.54 3086.24 L 4129.9 3086.42 L 4130.26 3086.78 L 4130.45 3087.33 L 4130.45 3087.69 L 4130.26 3088.24 L 4129.9 3088.6 L 4129.54 3088.78 L 4128.99 3088.78 L 4128.63 3088.6 L 4128.26 3088.24" fill="none"  stroke-width="0.8"  /></g><g c_partid="part_pcbtext" c_etype="pinpart" c_origin="4101,3089.5" c_rotation="0" c_mirror="0" id="gge407" locked="0" layerid="1" c_shapetype="group" ><path c_fontsize="4" c_fontfamily="" c_text="sw2" d="M 4103 3087.28 L 4102.82 3086.92 L 4102.27 3086.74 L 4101.73 3086.74 L 4101.18 3086.92 L 4101 3087.28 L 4101.18 3087.65 L 4101.55 3087.83 L 4102.45 3088.01 L 4102.82 3088.19 L 4103 3088.55 L 4103 3088.74 L 4102.82 3089.1 L 4102.27 3089.28 L 4101.73 3089.28 L 4101.18 3089.1 L 4101 3088.74 M 4104.2 3086.74 L 4104.93 3089.28 M 4105.65 3086.74 L 4104.93 3089.28 M 4105.65 3086.74 L 4106.38 3089.28 M 4107.11 3086.74 L 4106.38 3089.28 M 4108.49 3086.37 L 4108.49 3086.19 L 4108.67 3085.83 L 4108.85 3085.65 L 4109.22 3085.46 L 4109.95 3085.46 L 4110.31 3085.65 L 4110.49 3085.83 L 4110.67 3086.19 L 4110.67 3086.55 L 4110.49 3086.92 L 4110.13 3087.46 L 4108.31 3089.28 L 4110.85 3089.28" fill="none"  stroke-width="0.8"  /></g><g c_partid="part_pcbtext" c_etype="pinpart" c_origin="4056,3089" c_rotation="0" c_mirror="0" id="gge411" locked="0" layerid="1" c_shapetype="group" ><path c_fontsize="4" c_fontfamily="" c_text="sw1" d="M 4058 3086.78 L 4057.82 3086.42 L 4057.27 3086.24 L 4056.73 3086.24 L 4056.18 3086.42 L 4056 3086.78 L 4056.18 3087.15 L 4056.55 3087.33 L 4057.45 3087.51 L 4057.82 3087.69 L 4058 3088.05 L 4058 3088.24 L 4057.82 3088.6 L 4057.27 3088.78 L 4056.73 3088.78 L 4056.18 3088.6 L 4056 3088.24 M 4059.2 3086.24 L 4059.93 3088.78 M 4060.65 3086.24 L 4059.93 3088.78 M 4060.65 3086.24 L 4061.38 3088.78 M 4062.11 3086.24 L 4061.38 3088.78 M 4063.31 3085.69 L 4063.67 3085.51 L 4064.22 3084.96 L 4064.22 3088.78" fill="none"  stroke-width="0.8"  /></g><g c_partid="part_pcbtext" c_etype="pinpart" c_origin="4077,3089.5" c_rotation="0" c_mirror="0" id="gge415" locked="0" layerid="1" c_shapetype="group" ><path c_fontsize="4" c_fontfamily="" c_text="cap" d="M 4079.18 3087.28 L 4078.82 3086.92 L 4078.45 3086.74 L 4077.91 3086.74 L 4077.55 3086.92 L 4077.18 3087.28 L 4077 3087.83 L 4077 3088.19 L 4077.18 3088.74 L 4077.55 3089.1 L 4077.91 3089.28 L 4078.45 3089.28 L 4078.82 3089.1 L 4079.18 3088.74 M 4082.56 3086.74 L 4082.56 3089.28 M 4082.56 3087.28 L 4082.2 3086.92 L 4081.84 3086.74 L 4081.29 3086.74 L 4080.93 3086.92 L 4080.56 3087.28 L 4080.38 3087.83 L 4080.38 3088.19 L 4080.56 3088.74 L 4080.93 3089.1 L 4081.29 3089.28 L 4081.84 3089.28 L 4082.2 3089.1 L 4082.56 3088.74 M 4083.76 3086.74 L 4083.76 3090.55 M 4083.76 3087.28 L 4084.13 3086.92 L 4084.49 3086.74 L 4085.04 3086.74 L 4085.4 3086.92 L 4085.76 3087.28 L 4085.95 3087.83 L 4085.95 3088.19 L 4085.76 3088.74 L 4085.4 3089.1 L 4085.04 3089.28 L 4084.49 3089.28 L 4084.13 3089.1 L 4083.76 3088.74" fill="none"  stroke-width="0.8"  /></g><g c_partid="part_pcbtext" c_etype="pinpart" c_origin="4095,3121" c_rotation="0" c_mirror="0" id="gge432" locked="0" layerid="1" c_shapetype="group" ><path c_fontsize="4" c_fontfamily="" c_text="21" d="M 4095.18 3117.87 L 4095.18 3117.69 L 4095.36 3117.33 L 4095.55 3117.15 L 4095.91 3116.96 L 4096.64 3116.96 L 4097 3117.15 L 4097.18 3117.33 L 4097.36 3117.69 L 4097.36 3118.05 L 4097.18 3118.42 L 4096.82 3118.96 L 4095 3120.78 L 4097.55 3120.78 M 4098.75 3117.69 L 4099.11 3117.51 L 4099.65 3116.96 L 4099.65 3120.78" fill="none"  stroke-width="0.8"  /></g><g c_partid="part_pcbtext" c_etype="pinpart" c_origin="4051.5,3120.5" c_rotation="0" c_mirror="0" id="gge436" locked="0" layerid="1" c_shapetype="group" ><path c_fontsize="4" c_fontfamily="" c_text="18" d="M 4051.5 3117.19 L 4051.86 3117.01 L 4052.41 3116.46 L 4052.41 3120.28 M 4054.52 3116.46 L 4053.97 3116.65 L 4053.79 3117.01 L 4053.79 3117.37 L 4053.97 3117.74 L 4054.34 3117.92 L 4055.06 3118.1 L 4055.61 3118.28 L 4055.97 3118.65 L 4056.15 3119.01 L 4056.15 3119.55 L 4055.97 3119.92 L 4055.79 3120.1 L 4055.25 3120.28 L 4054.52 3120.28 L 4053.97 3120.1 L 4053.79 3119.92 L 4053.61 3119.55 L 4053.61 3119.01 L 4053.79 3118.65 L 4054.15 3118.28 L 4054.7 3118.1 L 4055.43 3117.92 L 4055.79 3117.74 L 4055.97 3117.37 L 4055.97 3117.01 L 4055.79 3116.65 L 4055.25 3116.46 L 4054.52 3116.46" fill="none"  stroke-width="0.8"  /></g><g c_partid="part_pcbtext" c_etype="pinpart" c_origin="4136.5,3120.5" c_rotation="0" c_mirror="0" id="gge440" locked="0" layerid="1" c_shapetype="group" ><path c_fontsize="4" c_fontfamily="" c_text="25" d="M 4136.68 3117.37 L 4136.68 3117.19 L 4136.86 3116.83 L 4137.05 3116.65 L 4137.41 3116.46 L 4138.14 3116.46 L 4138.5 3116.65 L 4138.68 3116.83 L 4138.86 3117.19 L 4138.86 3117.55 L 4138.68 3117.92 L 4138.32 3118.46 L 4136.5 3120.28 L 4139.05 3120.28 M 4142.43 3116.46 L 4140.61 3116.46 L 4140.43 3118.1 L 4140.61 3117.92 L 4141.15 3117.74 L 4141.7 3117.74 L 4142.25 3117.92 L 4142.61 3118.28 L 4142.79 3118.83 L 4142.79 3119.19 L 4142.61 3119.74 L 4142.25 3120.1 L 4141.7 3120.28 L 4141.15 3120.28 L 4140.61 3120.1 L 4140.43 3119.92 L 4140.25 3119.55" fill="none"  stroke-width="0.8"  /></g><g c_partid="part_pcbtext" c_etype="pinpart" c_origin="4168,3148" c_rotation="90" c_mirror="0" id="gge450" locked="0" layerid="1" c_shapetype="group" ><path c_fontsize="6" c_fontfamily="" c_text="5V" d="M 4161.95 3144.73 L 4161.95 3147.45 L 4164.4 3147.73 L 4164.13 3147.45 L 4163.85 3146.64 L 4163.85 3145.82 L 4164.13 3145 L 4164.67 3144.45 L 4165.49 3144.18 L 4166.04 3144.18 L 4166.85 3144.45 L 4167.4 3145 L 4167.67 3145.82 L 4167.67 3146.64 L 4167.4 3147.45 L 4167.13 3147.73 L 4166.58 3148 M 4161.95 3142.38 L 4167.67 3140.2 M 4161.95 3138.02 L 4167.67 3140.2" fill="none"  stroke-width="0.8"  /></g><g c_partid="part_pcbtext" c_etype="pinpart" c_origin="4065.5,3159" c_rotation="0" c_mirror="0" id="gge452" locked="0" layerid="1" c_shapetype="group" ><path c_fontsize="10" c_fontfamily="" c_text="MAMATUS" d="M 4065.5 3148.91 L 4065.5 3158.45 M 4065.5 3148.91 L 4069.14 3158.45 M 4072.77 3148.91 L 4069.14 3158.45 M 4072.77 3148.91 L 4072.77 3158.45 M 4079.41 3148.91 L 4075.77 3158.45 M 4079.41 3148.91 L 4083.05 3158.45 M 4077.14 3155.27 L 4081.68 3155.27 M 4086.05 3148.91 L 4086.05 3158.45 M 4086.05 3148.91 L 4089.68 3158.45 M 4093.32 3148.91 L 4089.68 3158.45 M 4093.32 3148.91 L 4093.32 3158.45 M 4099.95 3148.91 L 4096.32 3158.45 M 4099.95 3148.91 L 4103.59 3158.45 M 4097.68 3155.27 L 4102.23 3155.27 M 4109.77 3148.91 L 4109.77 3158.45 M 4106.59 3148.91 L 4112.95 3148.91 M 4115.95 3148.91 L 4115.95 3155.73 L 4116.41 3157.09 L 4117.32 3158 L 4118.68 3158.45 L 4119.59 3158.45 L 4120.95 3158 L 4121.86 3157.09 L 4122.32 3155.73 L 4122.32 3148.91 M 4131.68 3150.27 L 4130.77 3149.36 L 4129.41 3148.91 L 4127.59 3148.91 L 4126.23 3149.36 L 4125.32 3150.27 L 4125.32 3151.18 L 4125.77 3152.09 L 4126.23 3152.55 L 4127.14 3153 L 4129.86 3153.91 L 4130.77 3154.36 L 4131.23 3154.82 L 4131.68 3155.73 L 4131.68 3157.09 L 4130.77 3158 L 4129.41 3158.45 L 4127.59 3158.45 L 4126.23 3158 L 4125.32 3157.09" fill="none"  stroke-width="0.8"  /></g><path d="M 4039 3050.5 L 4176 3050.5 L 4176 3059 L 4039 3059 Z" stroke-width="0"   net="S$374" type="solid" layerid="1" id="gge347" locked="0" c_teardrop="" c_targetpad="" c_targetwire="" /><path d="M 4169 3160 L 4177.5 3160 L 4177 3131 L 4169 3131 Z " stroke-width="0"   net="" type="solid" layerid="1" id="gge459" locked="0" c_teardrop="" c_targetpad="" c_targetwire="" /></g><g transform="matrix(-1, 0, 0, 1, 8219.5, 0)"><polyline points="4040.5 3029 4180.5 3029 4180 3169 4040.5 3168.5 4040.5 3029" stroke-width="2.6"  stroke-linecap="round" fill="none" layerid="10" net="S$494" id="gge493" locked="0" /></g></svg>